<mxfile host="app.diagrams.net" modified="2020-12-02T09:05:05.673Z" agent="5.0 (Windows NT 10.0; WOW64) AppleWebKit/537.36 (KHTML, like Gecko) Chrome/70.0.3538.25 Safari/537.36 Core/1.70.3756.400 QQBrowser/10.5.4039.400" etag="UqXmnLu5myOyJc44BR_V" version="13.10.4" type="github">
  <diagram id="C5RBs43oDa-KdzZeNtuy" name="Page-1">
    <mxGraphModel dx="742" dy="480" grid="1" gridSize="10" guides="1" tooltips="1" connect="1" arrows="1" fold="1" page="1" pageScale="1" pageWidth="3300" pageHeight="4681" math="0" shadow="0">
      <root>
        <mxCell id="WIyWlLk6GJQsqaUBKTNV-0" />
        <mxCell id="WIyWlLk6GJQsqaUBKTNV-1" parent="WIyWlLk6GJQsqaUBKTNV-0" />
        <mxCell id="WIyWlLk6GJQsqaUBKTNV-2" value="" style="rounded=0;html=1;jettySize=auto;orthogonalLoop=1;fontSize=11;endArrow=block;endFill=0;endSize=8;strokeWidth=1;shadow=0;labelBackgroundColor=none;edgeStyle=orthogonalEdgeStyle;" parent="WIyWlLk6GJQsqaUBKTNV-1" source="WIyWlLk6GJQsqaUBKTNV-3" target="WIyWlLk6GJQsqaUBKTNV-6" edge="1">
          <mxGeometry relative="1" as="geometry" />
        </mxCell>
        <mxCell id="WIyWlLk6GJQsqaUBKTNV-3" value="下行接收PMWS" style="rounded=1;whiteSpace=wrap;html=1;fontSize=12;glass=0;strokeWidth=1;shadow=0;fillColor=#1ba1e2;strokeColor=#006EAF;fontColor=#ffffff;" parent="WIyWlLk6GJQsqaUBKTNV-1" vertex="1">
          <mxGeometry x="80" y="90" width="120" height="40" as="geometry" />
        </mxCell>
        <mxCell id="WIyWlLk6GJQsqaUBKTNV-4" value="Yes" style="rounded=0;html=1;jettySize=auto;orthogonalLoop=1;fontSize=11;endArrow=block;endFill=0;endSize=8;strokeWidth=1;shadow=0;labelBackgroundColor=none;edgeStyle=orthogonalEdgeStyle;" parent="WIyWlLk6GJQsqaUBKTNV-1" source="WIyWlLk6GJQsqaUBKTNV-6" target="WIyWlLk6GJQsqaUBKTNV-10" edge="1">
          <mxGeometry y="20" relative="1" as="geometry">
            <mxPoint as="offset" />
          </mxGeometry>
        </mxCell>
        <mxCell id="WIyWlLk6GJQsqaUBKTNV-5" value="No" style="edgeStyle=orthogonalEdgeStyle;rounded=0;html=1;jettySize=auto;orthogonalLoop=1;fontSize=11;endArrow=block;endFill=0;endSize=8;strokeWidth=1;shadow=0;labelBackgroundColor=none;" parent="WIyWlLk6GJQsqaUBKTNV-1" source="WIyWlLk6GJQsqaUBKTNV-6" target="WIyWlLk6GJQsqaUBKTNV-7" edge="1">
          <mxGeometry y="10" relative="1" as="geometry">
            <mxPoint as="offset" />
          </mxGeometry>
        </mxCell>
        <mxCell id="WIyWlLk6GJQsqaUBKTNV-6" value="服务是否暂停" style="rhombus;whiteSpace=wrap;html=1;shadow=0;fontFamily=Helvetica;fontSize=12;align=center;strokeWidth=1;spacing=6;spacingTop=-4;gradientColor=#97d077;fillColor=#d5e8d4;strokeColor=#82b366;" parent="WIyWlLk6GJQsqaUBKTNV-1" vertex="1">
          <mxGeometry x="90" y="170" width="100" height="80" as="geometry" />
        </mxCell>
        <mxCell id="WIyWlLk6GJQsqaUBKTNV-7" value="100110" style="rounded=1;whiteSpace=wrap;html=1;fontSize=12;glass=0;strokeWidth=1;shadow=0;fillColor=#e51400;strokeColor=#B20000;fontColor=#ffffff;" parent="WIyWlLk6GJQsqaUBKTNV-1" vertex="1">
          <mxGeometry x="220" y="190" width="120" height="40" as="geometry" />
        </mxCell>
        <mxCell id="eVNANjYWgDma2gAOLHsl-2" value="" style="edgeStyle=orthogonalEdgeStyle;rounded=0;orthogonalLoop=1;jettySize=auto;html=1;" parent="WIyWlLk6GJQsqaUBKTNV-1" source="WIyWlLk6GJQsqaUBKTNV-10" target="WIyWlLk6GJQsqaUBKTNV-12" edge="1">
          <mxGeometry relative="1" as="geometry" />
        </mxCell>
        <mxCell id="eVNANjYWgDma2gAOLHsl-4" style="edgeStyle=orthogonalEdgeStyle;rounded=0;orthogonalLoop=1;jettySize=auto;html=1;" parent="WIyWlLk6GJQsqaUBKTNV-1" source="WIyWlLk6GJQsqaUBKTNV-10" edge="1">
          <mxGeometry relative="1" as="geometry">
            <mxPoint x="140" y="400" as="targetPoint" />
          </mxGeometry>
        </mxCell>
        <mxCell id="WIyWlLk6GJQsqaUBKTNV-10" value="是否找到对应模板" style="rhombus;whiteSpace=wrap;html=1;shadow=0;fontFamily=Helvetica;fontSize=12;align=center;strokeWidth=1;spacing=6;spacingTop=-4;gradientColor=#97d077;fillColor=#d5e8d4;strokeColor=#82b366;" parent="WIyWlLk6GJQsqaUBKTNV-1" vertex="1">
          <mxGeometry x="90" y="290" width="100" height="80" as="geometry" />
        </mxCell>
        <mxCell id="WIyWlLk6GJQsqaUBKTNV-12" value="200014" style="rounded=1;whiteSpace=wrap;html=1;fontSize=12;glass=0;strokeWidth=1;shadow=0;fillColor=#e51400;strokeColor=#B20000;fontColor=#ffffff;" parent="WIyWlLk6GJQsqaUBKTNV-1" vertex="1">
          <mxGeometry x="220" y="310" width="120" height="40" as="geometry" />
        </mxCell>
        <mxCell id="eVNANjYWgDma2gAOLHsl-146" style="edgeStyle=orthogonalEdgeStyle;rounded=0;orthogonalLoop=1;jettySize=auto;html=1;exitX=1;exitY=0.5;exitDx=0;exitDy=0;entryX=0.5;entryY=0;entryDx=0;entryDy=0;" parent="WIyWlLk6GJQsqaUBKTNV-1" source="eVNANjYWgDma2gAOLHsl-0" target="WIyWlLk6GJQsqaUBKTNV-3" edge="1">
          <mxGeometry relative="1" as="geometry" />
        </mxCell>
        <mxCell id="eVNANjYWgDma2gAOLHsl-0" value="业务请求" style="ellipse;whiteSpace=wrap;html=1;fillColor=#008a00;strokeColor=#005700;fontColor=#ffffff;" parent="WIyWlLk6GJQsqaUBKTNV-1" vertex="1">
          <mxGeometry width="120" height="40" as="geometry" />
        </mxCell>
        <mxCell id="eVNANjYWgDma2gAOLHsl-3" value="No" style="text;html=1;align=center;verticalAlign=middle;resizable=0;points=[];autosize=1;" parent="WIyWlLk6GJQsqaUBKTNV-1" vertex="1">
          <mxGeometry x="185" y="330" width="30" height="20" as="geometry" />
        </mxCell>
        <mxCell id="eVNANjYWgDma2gAOLHsl-9" value="" style="edgeStyle=orthogonalEdgeStyle;rounded=0;orthogonalLoop=1;jettySize=auto;html=1;" parent="WIyWlLk6GJQsqaUBKTNV-1" source="eVNANjYWgDma2gAOLHsl-5" target="eVNANjYWgDma2gAOLHsl-8" edge="1">
          <mxGeometry relative="1" as="geometry" />
        </mxCell>
        <mxCell id="eVNANjYWgDma2gAOLHsl-13" value="" style="edgeStyle=orthogonalEdgeStyle;rounded=0;orthogonalLoop=1;jettySize=auto;html=1;" parent="WIyWlLk6GJQsqaUBKTNV-1" source="eVNANjYWgDma2gAOLHsl-5" target="eVNANjYWgDma2gAOLHsl-12" edge="1">
          <mxGeometry relative="1" as="geometry" />
        </mxCell>
        <mxCell id="eVNANjYWgDma2gAOLHsl-5" value="接入平台ID是否正确" style="rhombus;whiteSpace=wrap;html=1;gradientColor=#97d077;fillColor=#d5e8d4;strokeColor=#82b366;" parent="WIyWlLk6GJQsqaUBKTNV-1" vertex="1">
          <mxGeometry x="80" y="400" width="120" height="80" as="geometry" />
        </mxCell>
        <mxCell id="eVNANjYWgDma2gAOLHsl-8" value="100002" style="rounded=1;whiteSpace=wrap;html=1;fillColor=#e51400;strokeColor=#B20000;fontColor=#ffffff;" parent="WIyWlLk6GJQsqaUBKTNV-1" vertex="1">
          <mxGeometry x="220" y="420" width="120" height="40" as="geometry" />
        </mxCell>
        <mxCell id="eVNANjYWgDma2gAOLHsl-10" value="Yes" style="text;html=1;align=center;verticalAlign=middle;resizable=0;points=[];autosize=1;" parent="WIyWlLk6GJQsqaUBKTNV-1" vertex="1">
          <mxGeometry x="135" y="370" width="30" height="20" as="geometry" />
        </mxCell>
        <mxCell id="eVNANjYWgDma2gAOLHsl-11" value="No" style="text;html=1;align=center;verticalAlign=middle;resizable=0;points=[];autosize=1;" parent="WIyWlLk6GJQsqaUBKTNV-1" vertex="1">
          <mxGeometry x="195" y="440" width="30" height="20" as="geometry" />
        </mxCell>
        <mxCell id="eVNANjYWgDma2gAOLHsl-16" value="" style="edgeStyle=orthogonalEdgeStyle;rounded=0;orthogonalLoop=1;jettySize=auto;html=1;" parent="WIyWlLk6GJQsqaUBKTNV-1" source="eVNANjYWgDma2gAOLHsl-12" target="eVNANjYWgDma2gAOLHsl-15" edge="1">
          <mxGeometry relative="1" as="geometry" />
        </mxCell>
        <mxCell id="eVNANjYWgDma2gAOLHsl-19" value="" style="edgeStyle=orthogonalEdgeStyle;rounded=0;orthogonalLoop=1;jettySize=auto;html=1;" parent="WIyWlLk6GJQsqaUBKTNV-1" source="eVNANjYWgDma2gAOLHsl-12" target="eVNANjYWgDma2gAOLHsl-18" edge="1">
          <mxGeometry relative="1" as="geometry" />
        </mxCell>
        <mxCell id="eVNANjYWgDma2gAOLHsl-12" value="是否是允许请求IP" style="rhombus;whiteSpace=wrap;html=1;gradientColor=#97d077;fillColor=#d5e8d4;strokeColor=#82b366;" parent="WIyWlLk6GJQsqaUBKTNV-1" vertex="1">
          <mxGeometry x="80" y="530" width="120" height="80" as="geometry" />
        </mxCell>
        <mxCell id="eVNANjYWgDma2gAOLHsl-14" value="Yes" style="text;html=1;align=center;verticalAlign=middle;resizable=0;points=[];autosize=1;" parent="WIyWlLk6GJQsqaUBKTNV-1" vertex="1">
          <mxGeometry x="135" y="500" width="30" height="20" as="geometry" />
        </mxCell>
        <mxCell id="eVNANjYWgDma2gAOLHsl-15" value="100001" style="rounded=1;whiteSpace=wrap;html=1;fillColor=#e51400;strokeColor=#B20000;fontColor=#ffffff;" parent="WIyWlLk6GJQsqaUBKTNV-1" vertex="1">
          <mxGeometry x="230" y="550" width="120" height="40" as="geometry" />
        </mxCell>
        <mxCell id="eVNANjYWgDma2gAOLHsl-17" value="No" style="text;html=1;align=center;verticalAlign=middle;resizable=0;points=[];autosize=1;" parent="WIyWlLk6GJQsqaUBKTNV-1" vertex="1">
          <mxGeometry x="205" y="570" width="30" height="20" as="geometry" />
        </mxCell>
        <mxCell id="eVNANjYWgDma2gAOLHsl-23" value="" style="edgeStyle=orthogonalEdgeStyle;rounded=0;orthogonalLoop=1;jettySize=auto;html=1;" parent="WIyWlLk6GJQsqaUBKTNV-1" source="eVNANjYWgDma2gAOLHsl-18" target="eVNANjYWgDma2gAOLHsl-22" edge="1">
          <mxGeometry relative="1" as="geometry" />
        </mxCell>
        <mxCell id="eVNANjYWgDma2gAOLHsl-26" value="" style="edgeStyle=orthogonalEdgeStyle;rounded=0;orthogonalLoop=1;jettySize=auto;html=1;" parent="WIyWlLk6GJQsqaUBKTNV-1" source="eVNANjYWgDma2gAOLHsl-18" target="eVNANjYWgDma2gAOLHsl-25" edge="1">
          <mxGeometry relative="1" as="geometry" />
        </mxCell>
        <mxCell id="eVNANjYWgDma2gAOLHsl-18" value="模板状态是否正确" style="rhombus;whiteSpace=wrap;html=1;gradientColor=#97d077;fillColor=#d5e8d4;strokeColor=#82b366;" parent="WIyWlLk6GJQsqaUBKTNV-1" vertex="1">
          <mxGeometry x="80" y="670" width="120" height="80" as="geometry" />
        </mxCell>
        <mxCell id="eVNANjYWgDma2gAOLHsl-21" value="Yes" style="text;html=1;align=center;verticalAlign=middle;resizable=0;points=[];autosize=1;" parent="WIyWlLk6GJQsqaUBKTNV-1" vertex="1">
          <mxGeometry x="135" y="630" width="30" height="20" as="geometry" />
        </mxCell>
        <mxCell id="eVNANjYWgDma2gAOLHsl-22" value="200009" style="rounded=1;whiteSpace=wrap;html=1;fillColor=#e51400;strokeColor=#B20000;fontColor=#ffffff;" parent="WIyWlLk6GJQsqaUBKTNV-1" vertex="1">
          <mxGeometry x="230" y="690" width="120" height="40" as="geometry" />
        </mxCell>
        <mxCell id="eVNANjYWgDma2gAOLHsl-24" value="No" style="text;html=1;align=center;verticalAlign=middle;resizable=0;points=[];autosize=1;" parent="WIyWlLk6GJQsqaUBKTNV-1" vertex="1">
          <mxGeometry x="195" y="720" width="30" height="20" as="geometry" />
        </mxCell>
        <mxCell id="eVNANjYWgDma2gAOLHsl-29" value="" style="edgeStyle=orthogonalEdgeStyle;rounded=0;orthogonalLoop=1;jettySize=auto;html=1;" parent="WIyWlLk6GJQsqaUBKTNV-1" source="eVNANjYWgDma2gAOLHsl-25" target="eVNANjYWgDma2gAOLHsl-28" edge="1">
          <mxGeometry relative="1" as="geometry" />
        </mxCell>
        <mxCell id="eVNANjYWgDma2gAOLHsl-32" value="" style="edgeStyle=orthogonalEdgeStyle;rounded=0;orthogonalLoop=1;jettySize=auto;html=1;" parent="WIyWlLk6GJQsqaUBKTNV-1" source="eVNANjYWgDma2gAOLHsl-25" target="eVNANjYWgDma2gAOLHsl-30" edge="1">
          <mxGeometry relative="1" as="geometry" />
        </mxCell>
        <mxCell id="eVNANjYWgDma2gAOLHsl-25" value="WS接入管理是否有该请求接入方法权限" style="rhombus;whiteSpace=wrap;html=1;gradientColor=#97d077;fillColor=#d5e8d4;strokeColor=#82b366;" parent="WIyWlLk6GJQsqaUBKTNV-1" vertex="1">
          <mxGeometry x="80" y="800" width="120" height="80" as="geometry" />
        </mxCell>
        <mxCell id="eVNANjYWgDma2gAOLHsl-27" value="Yes" style="text;html=1;align=center;verticalAlign=middle;resizable=0;points=[];autosize=1;" parent="WIyWlLk6GJQsqaUBKTNV-1" vertex="1">
          <mxGeometry x="145" y="760" width="30" height="20" as="geometry" />
        </mxCell>
        <mxCell id="eVNANjYWgDma2gAOLHsl-36" value="" style="edgeStyle=orthogonalEdgeStyle;rounded=0;orthogonalLoop=1;jettySize=auto;html=1;" parent="WIyWlLk6GJQsqaUBKTNV-1" source="eVNANjYWgDma2gAOLHsl-28" target="eVNANjYWgDma2gAOLHsl-35" edge="1">
          <mxGeometry relative="1" as="geometry" />
        </mxCell>
        <mxCell id="eVNANjYWgDma2gAOLHsl-47" style="edgeStyle=orthogonalEdgeStyle;rounded=0;orthogonalLoop=1;jettySize=auto;html=1;exitX=0;exitY=0.5;exitDx=0;exitDy=0;entryX=0;entryY=0.5;entryDx=0;entryDy=0;" parent="WIyWlLk6GJQsqaUBKTNV-1" source="eVNANjYWgDma2gAOLHsl-28" target="eVNANjYWgDma2gAOLHsl-38" edge="1">
          <mxGeometry relative="1" as="geometry" />
        </mxCell>
        <mxCell id="eVNANjYWgDma2gAOLHsl-28" value="是否开启黑名验证" style="rhombus;whiteSpace=wrap;html=1;gradientColor=#97d077;fillColor=#d5e8d4;strokeColor=#82b366;" parent="WIyWlLk6GJQsqaUBKTNV-1" vertex="1">
          <mxGeometry x="80" y="930" width="120" height="80" as="geometry" />
        </mxCell>
        <mxCell id="eVNANjYWgDma2gAOLHsl-30" value="100005" style="rounded=1;whiteSpace=wrap;html=1;fillColor=#e51400;strokeColor=#B20000;fontColor=#ffffff;" parent="WIyWlLk6GJQsqaUBKTNV-1" vertex="1">
          <mxGeometry x="230" y="822.5" width="120" height="35" as="geometry" />
        </mxCell>
        <mxCell id="eVNANjYWgDma2gAOLHsl-31" style="edgeStyle=orthogonalEdgeStyle;rounded=0;orthogonalLoop=1;jettySize=auto;html=1;exitX=0.5;exitY=1;exitDx=0;exitDy=0;" parent="WIyWlLk6GJQsqaUBKTNV-1" source="eVNANjYWgDma2gAOLHsl-30" target="eVNANjYWgDma2gAOLHsl-30" edge="1">
          <mxGeometry relative="1" as="geometry" />
        </mxCell>
        <mxCell id="eVNANjYWgDma2gAOLHsl-33" value="Yes" style="text;html=1;align=center;verticalAlign=middle;resizable=0;points=[];autosize=1;" parent="WIyWlLk6GJQsqaUBKTNV-1" vertex="1">
          <mxGeometry x="145" y="880" width="30" height="20" as="geometry" />
        </mxCell>
        <mxCell id="eVNANjYWgDma2gAOLHsl-34" value="&lt;span style=&quot;color: rgb(0, 0, 0); font-family: helvetica; font-size: 12px; font-style: normal; font-weight: 400; letter-spacing: normal; text-align: center; text-indent: 0px; text-transform: none; word-spacing: 0px; background-color: rgb(248, 249, 250); display: inline; float: none;&quot;&gt;No&lt;/span&gt;" style="text;whiteSpace=wrap;html=1;" parent="WIyWlLk6GJQsqaUBKTNV-1" vertex="1">
          <mxGeometry x="200" y="840" width="40" height="30" as="geometry" />
        </mxCell>
        <mxCell id="eVNANjYWgDma2gAOLHsl-39" value="" style="edgeStyle=orthogonalEdgeStyle;rounded=0;orthogonalLoop=1;jettySize=auto;html=1;" parent="WIyWlLk6GJQsqaUBKTNV-1" source="eVNANjYWgDma2gAOLHsl-35" target="eVNANjYWgDma2gAOLHsl-38" edge="1">
          <mxGeometry relative="1" as="geometry" />
        </mxCell>
        <mxCell id="eVNANjYWgDma2gAOLHsl-42" style="edgeStyle=orthogonalEdgeStyle;rounded=0;orthogonalLoop=1;jettySize=auto;html=1;exitX=1;exitY=0.5;exitDx=0;exitDy=0;" parent="WIyWlLk6GJQsqaUBKTNV-1" source="eVNANjYWgDma2gAOLHsl-35" target="eVNANjYWgDma2gAOLHsl-41" edge="1">
          <mxGeometry relative="1" as="geometry" />
        </mxCell>
        <mxCell id="eVNANjYWgDma2gAOLHsl-35" value="验证号码是否在黑名单中" style="rhombus;whiteSpace=wrap;html=1;gradientColor=#97d077;fillColor=#d5e8d4;strokeColor=#82b366;" parent="WIyWlLk6GJQsqaUBKTNV-1" vertex="1">
          <mxGeometry x="80" y="1050" width="120" height="80" as="geometry" />
        </mxCell>
        <mxCell id="eVNANjYWgDma2gAOLHsl-37" value="&lt;span style=&quot;color: rgb(0, 0, 0); font-family: helvetica; font-size: 12px; font-style: normal; font-weight: 400; letter-spacing: normal; text-align: center; text-indent: 0px; text-transform: none; word-spacing: 0px; background-color: rgb(248, 249, 250); display: inline; float: none;&quot;&gt;Yes&lt;/span&gt;" style="text;whiteSpace=wrap;html=1;" parent="WIyWlLk6GJQsqaUBKTNV-1" vertex="1">
          <mxGeometry x="140" y="1010" width="40" height="30" as="geometry" />
        </mxCell>
        <mxCell id="eVNANjYWgDma2gAOLHsl-45" value="" style="edgeStyle=orthogonalEdgeStyle;rounded=0;orthogonalLoop=1;jettySize=auto;html=1;" parent="WIyWlLk6GJQsqaUBKTNV-1" source="eVNANjYWgDma2gAOLHsl-38" target="eVNANjYWgDma2gAOLHsl-44" edge="1">
          <mxGeometry relative="1" as="geometry" />
        </mxCell>
        <mxCell id="eVNANjYWgDma2gAOLHsl-58" style="edgeStyle=orthogonalEdgeStyle;rounded=0;orthogonalLoop=1;jettySize=auto;html=1;exitX=0;exitY=1;exitDx=0;exitDy=0;entryX=0;entryY=0.5;entryDx=0;entryDy=0;" parent="WIyWlLk6GJQsqaUBKTNV-1" source="eVNANjYWgDma2gAOLHsl-38" target="eVNANjYWgDma2gAOLHsl-52" edge="1">
          <mxGeometry relative="1" as="geometry">
            <Array as="points">
              <mxPoint x="50" y="1229" />
              <mxPoint x="50" y="1460" />
            </Array>
          </mxGeometry>
        </mxCell>
        <mxCell id="eVNANjYWgDma2gAOLHsl-38" value="是否开启白名单验证" style="rhombus;whiteSpace=wrap;html=1;gradientColor=#97d077;fillColor=#d5e8d4;strokeColor=#82b366;" parent="WIyWlLk6GJQsqaUBKTNV-1" vertex="1">
          <mxGeometry x="80" y="1169" width="120" height="80" as="geometry" />
        </mxCell>
        <mxCell id="eVNANjYWgDma2gAOLHsl-40" value="&lt;div style=&quot;text-align: center&quot;&gt;&lt;span&gt;&lt;font face=&quot;helvetica&quot;&gt;No&lt;/font&gt;&lt;/span&gt;&lt;/div&gt;" style="text;whiteSpace=wrap;html=1;" parent="WIyWlLk6GJQsqaUBKTNV-1" vertex="1">
          <mxGeometry x="145" y="1130" width="40" height="30" as="geometry" />
        </mxCell>
        <mxCell id="eVNANjYWgDma2gAOLHsl-41" value="200041" style="rounded=1;whiteSpace=wrap;html=1;fillColor=#e51400;strokeColor=#B20000;fontColor=#ffffff;" parent="WIyWlLk6GJQsqaUBKTNV-1" vertex="1">
          <mxGeometry x="225" y="1070" width="120" height="40" as="geometry" />
        </mxCell>
        <mxCell id="eVNANjYWgDma2gAOLHsl-43" value="&lt;span style=&quot;color: rgb(0, 0, 0); font-family: helvetica; font-size: 12px; font-style: normal; font-weight: 400; letter-spacing: normal; text-align: center; text-indent: 0px; text-transform: none; word-spacing: 0px; background-color: rgb(248, 249, 250); display: inline; float: none;&quot;&gt;Yes&lt;/span&gt;" style="text;whiteSpace=wrap;html=1;" parent="WIyWlLk6GJQsqaUBKTNV-1" vertex="1">
          <mxGeometry x="200" y="1090" width="40" height="30" as="geometry" />
        </mxCell>
        <mxCell id="eVNANjYWgDma2gAOLHsl-50" style="edgeStyle=orthogonalEdgeStyle;rounded=0;orthogonalLoop=1;jettySize=auto;html=1;exitX=1;exitY=0.5;exitDx=0;exitDy=0;" parent="WIyWlLk6GJQsqaUBKTNV-1" source="eVNANjYWgDma2gAOLHsl-44" target="eVNANjYWgDma2gAOLHsl-48" edge="1">
          <mxGeometry relative="1" as="geometry" />
        </mxCell>
        <mxCell id="eVNANjYWgDma2gAOLHsl-53" value="" style="edgeStyle=orthogonalEdgeStyle;rounded=0;orthogonalLoop=1;jettySize=auto;html=1;" parent="WIyWlLk6GJQsqaUBKTNV-1" source="eVNANjYWgDma2gAOLHsl-44" target="eVNANjYWgDma2gAOLHsl-52" edge="1">
          <mxGeometry relative="1" as="geometry" />
        </mxCell>
        <mxCell id="eVNANjYWgDma2gAOLHsl-44" value="验证号码是否在白名单中" style="rhombus;whiteSpace=wrap;html=1;gradientColor=#97d077;fillColor=#d5e8d4;strokeColor=#82b366;" parent="WIyWlLk6GJQsqaUBKTNV-1" vertex="1">
          <mxGeometry x="80" y="1300" width="120" height="80" as="geometry" />
        </mxCell>
        <mxCell id="eVNANjYWgDma2gAOLHsl-46" value="&lt;span style=&quot;font-family: &amp;#34;helvetica&amp;#34;&quot;&gt;Yes&lt;/span&gt;" style="text;html=1;align=center;verticalAlign=middle;resizable=0;points=[];autosize=1;" parent="WIyWlLk6GJQsqaUBKTNV-1" vertex="1">
          <mxGeometry x="135" y="1250" width="30" height="20" as="geometry" />
        </mxCell>
        <mxCell id="eVNANjYWgDma2gAOLHsl-48" value="200042" style="rounded=1;whiteSpace=wrap;html=1;fillColor=#e51400;strokeColor=#B20000;fontColor=#ffffff;" parent="WIyWlLk6GJQsqaUBKTNV-1" vertex="1">
          <mxGeometry x="230" y="1320" width="120" height="40" as="geometry" />
        </mxCell>
        <mxCell id="eVNANjYWgDma2gAOLHsl-49" value="&lt;span style=&quot;color: rgb(0, 0, 0); font-family: helvetica; font-size: 12px; font-style: normal; font-weight: 400; letter-spacing: normal; text-align: center; text-indent: 0px; text-transform: none; word-spacing: 0px; background-color: rgb(248, 249, 250); display: inline; float: none;&quot;&gt;No&lt;/span&gt;" style="text;whiteSpace=wrap;html=1;" parent="WIyWlLk6GJQsqaUBKTNV-1" vertex="1">
          <mxGeometry x="40" y="1070" width="40" height="30" as="geometry" />
        </mxCell>
        <mxCell id="eVNANjYWgDma2gAOLHsl-51" value="&lt;span style=&quot;font-family: &amp;#34;helvetica&amp;#34;&quot;&gt;No&lt;/span&gt;" style="text;html=1;align=center;verticalAlign=middle;resizable=0;points=[];autosize=1;" parent="WIyWlLk6GJQsqaUBKTNV-1" vertex="1">
          <mxGeometry x="195" y="1340" width="30" height="20" as="geometry" />
        </mxCell>
        <mxCell id="eVNANjYWgDma2gAOLHsl-55" value="" style="edgeStyle=orthogonalEdgeStyle;rounded=0;orthogonalLoop=1;jettySize=auto;html=1;" parent="WIyWlLk6GJQsqaUBKTNV-1" source="eVNANjYWgDma2gAOLHsl-52" target="eVNANjYWgDma2gAOLHsl-54" edge="1">
          <mxGeometry relative="1" as="geometry" />
        </mxCell>
        <mxCell id="eVNANjYWgDma2gAOLHsl-68" style="edgeStyle=orthogonalEdgeStyle;rounded=0;orthogonalLoop=1;jettySize=auto;html=1;exitX=0;exitY=1;exitDx=0;exitDy=0;entryX=0;entryY=0.5;entryDx=0;entryDy=0;" parent="WIyWlLk6GJQsqaUBKTNV-1" source="eVNANjYWgDma2gAOLHsl-52" target="eVNANjYWgDma2gAOLHsl-63" edge="1">
          <mxGeometry relative="1" as="geometry">
            <Array as="points">
              <mxPoint x="50" y="1480" />
              <mxPoint x="50" y="1700" />
            </Array>
          </mxGeometry>
        </mxCell>
        <mxCell id="eVNANjYWgDma2gAOLHsl-52" value="是否限制模板内容字数" style="rhombus;whiteSpace=wrap;html=1;gradientColor=#97d077;fillColor=#d5e8d4;strokeColor=#82b366;" parent="WIyWlLk6GJQsqaUBKTNV-1" vertex="1">
          <mxGeometry x="80" y="1420" width="120" height="80" as="geometry" />
        </mxCell>
        <mxCell id="eVNANjYWgDma2gAOLHsl-61" style="edgeStyle=orthogonalEdgeStyle;rounded=0;orthogonalLoop=1;jettySize=auto;html=1;exitX=1;exitY=0.5;exitDx=0;exitDy=0;entryX=0;entryY=0.5;entryDx=0;entryDy=0;" parent="WIyWlLk6GJQsqaUBKTNV-1" source="eVNANjYWgDma2gAOLHsl-54" target="eVNANjYWgDma2gAOLHsl-60" edge="1">
          <mxGeometry relative="1" as="geometry" />
        </mxCell>
        <mxCell id="eVNANjYWgDma2gAOLHsl-64" value="" style="edgeStyle=orthogonalEdgeStyle;rounded=0;orthogonalLoop=1;jettySize=auto;html=1;" parent="WIyWlLk6GJQsqaUBKTNV-1" source="eVNANjYWgDma2gAOLHsl-54" target="eVNANjYWgDma2gAOLHsl-63" edge="1">
          <mxGeometry relative="1" as="geometry" />
        </mxCell>
        <mxCell id="eVNANjYWgDma2gAOLHsl-54" value="内容模板字数是否超出限定" style="rhombus;whiteSpace=wrap;html=1;gradientColor=#97d077;fillColor=#d5e8d4;strokeColor=#82b366;" parent="WIyWlLk6GJQsqaUBKTNV-1" vertex="1">
          <mxGeometry x="80" y="1540" width="120" height="80" as="geometry" />
        </mxCell>
        <mxCell id="eVNANjYWgDma2gAOLHsl-56" value="&lt;span style=&quot;color: rgb(0, 0, 0); font-family: helvetica; font-size: 12px; font-style: normal; font-weight: 400; letter-spacing: normal; text-align: center; text-indent: 0px; text-transform: none; word-spacing: 0px; background-color: rgb(248, 249, 250); display: inline; float: none;&quot;&gt;Yes&lt;/span&gt;" style="text;whiteSpace=wrap;html=1;" parent="WIyWlLk6GJQsqaUBKTNV-1" vertex="1">
          <mxGeometry x="140" y="1390" width="40" height="30" as="geometry" />
        </mxCell>
        <mxCell id="eVNANjYWgDma2gAOLHsl-57" value="&lt;span style=&quot;font-family: &amp;#34;helvetica&amp;#34;&quot;&gt;Yes&lt;/span&gt;" style="text;html=1;align=center;verticalAlign=middle;resizable=0;points=[];autosize=1;" parent="WIyWlLk6GJQsqaUBKTNV-1" vertex="1">
          <mxGeometry x="135" y="1510" width="30" height="20" as="geometry" />
        </mxCell>
        <mxCell id="eVNANjYWgDma2gAOLHsl-59" value="No" style="text;html=1;align=center;verticalAlign=middle;resizable=0;points=[];autosize=1;" parent="WIyWlLk6GJQsqaUBKTNV-1" vertex="1">
          <mxGeometry x="15" y="1310" width="30" height="20" as="geometry" />
        </mxCell>
        <mxCell id="eVNANjYWgDma2gAOLHsl-60" value="200012" style="rounded=1;whiteSpace=wrap;html=1;fillColor=#e51400;strokeColor=#B20000;fontColor=#ffffff;" parent="WIyWlLk6GJQsqaUBKTNV-1" vertex="1">
          <mxGeometry x="220" y="1560" width="120" height="40" as="geometry" />
        </mxCell>
        <mxCell id="eVNANjYWgDma2gAOLHsl-62" value="&lt;span style=&quot;color: rgb(0, 0, 0); font-family: helvetica; font-size: 12px; font-style: normal; font-weight: 400; letter-spacing: normal; text-align: center; text-indent: 0px; text-transform: none; word-spacing: 0px; background-color: rgb(248, 249, 250); display: inline; float: none;&quot;&gt;Yes&lt;/span&gt;" style="text;whiteSpace=wrap;html=1;" parent="WIyWlLk6GJQsqaUBKTNV-1" vertex="1">
          <mxGeometry x="200" y="1580" width="40" height="30" as="geometry" />
        </mxCell>
        <mxCell id="eVNANjYWgDma2gAOLHsl-67" style="edgeStyle=orthogonalEdgeStyle;rounded=0;orthogonalLoop=1;jettySize=auto;html=1;exitX=1;exitY=0.5;exitDx=0;exitDy=0;" parent="WIyWlLk6GJQsqaUBKTNV-1" source="eVNANjYWgDma2gAOLHsl-63" target="eVNANjYWgDma2gAOLHsl-66" edge="1">
          <mxGeometry relative="1" as="geometry" />
        </mxCell>
        <mxCell id="eVNANjYWgDma2gAOLHsl-72" value="" style="edgeStyle=orthogonalEdgeStyle;rounded=0;orthogonalLoop=1;jettySize=auto;html=1;" parent="WIyWlLk6GJQsqaUBKTNV-1" source="eVNANjYWgDma2gAOLHsl-63" target="eVNANjYWgDma2gAOLHsl-71" edge="1">
          <mxGeometry relative="1" as="geometry" />
        </mxCell>
        <mxCell id="eVNANjYWgDma2gAOLHsl-63" value="接入端口号是否正确" style="rhombus;whiteSpace=wrap;html=1;gradientColor=#97d077;fillColor=#d5e8d4;strokeColor=#82b366;" parent="WIyWlLk6GJQsqaUBKTNV-1" vertex="1">
          <mxGeometry x="80" y="1660" width="120" height="80" as="geometry" />
        </mxCell>
        <mxCell id="eVNANjYWgDma2gAOLHsl-65" value="No" style="text;html=1;align=center;verticalAlign=middle;resizable=0;points=[];autosize=1;" parent="WIyWlLk6GJQsqaUBKTNV-1" vertex="1">
          <mxGeometry x="145" y="1630" width="30" height="20" as="geometry" />
        </mxCell>
        <mxCell id="eVNANjYWgDma2gAOLHsl-66" value="200006" style="rounded=1;whiteSpace=wrap;html=1;fillColor=#e51400;strokeColor=#B20000;fontColor=#ffffff;" parent="WIyWlLk6GJQsqaUBKTNV-1" vertex="1">
          <mxGeometry x="220" y="1680" width="120" height="40" as="geometry" />
        </mxCell>
        <mxCell id="eVNANjYWgDma2gAOLHsl-69" value="No" style="text;html=1;align=center;verticalAlign=middle;resizable=0;points=[];autosize=1;" parent="WIyWlLk6GJQsqaUBKTNV-1" vertex="1">
          <mxGeometry x="25" y="1570" width="30" height="20" as="geometry" />
        </mxCell>
        <mxCell id="eVNANjYWgDma2gAOLHsl-70" value="No" style="text;html=1;align=center;verticalAlign=middle;resizable=0;points=[];autosize=1;" parent="WIyWlLk6GJQsqaUBKTNV-1" vertex="1">
          <mxGeometry x="195" y="1700" width="30" height="20" as="geometry" />
        </mxCell>
        <mxCell id="eVNANjYWgDma2gAOLHsl-75" style="edgeStyle=orthogonalEdgeStyle;rounded=0;orthogonalLoop=1;jettySize=auto;html=1;entryX=0;entryY=0.5;entryDx=0;entryDy=0;" parent="WIyWlLk6GJQsqaUBKTNV-1" source="eVNANjYWgDma2gAOLHsl-71" target="eVNANjYWgDma2gAOLHsl-74" edge="1">
          <mxGeometry relative="1" as="geometry" />
        </mxCell>
        <mxCell id="eVNANjYWgDma2gAOLHsl-78" value="" style="edgeStyle=orthogonalEdgeStyle;rounded=0;orthogonalLoop=1;jettySize=auto;html=1;" parent="WIyWlLk6GJQsqaUBKTNV-1" source="eVNANjYWgDma2gAOLHsl-71" target="eVNANjYWgDma2gAOLHsl-77" edge="1">
          <mxGeometry relative="1" as="geometry" />
        </mxCell>
        <mxCell id="eVNANjYWgDma2gAOLHsl-71" value="验证密码是否正确" style="rhombus;whiteSpace=wrap;html=1;gradientColor=#97d077;fillColor=#d5e8d4;strokeColor=#82b366;" parent="WIyWlLk6GJQsqaUBKTNV-1" vertex="1">
          <mxGeometry x="80" y="1790" width="120" height="80" as="geometry" />
        </mxCell>
        <mxCell id="eVNANjYWgDma2gAOLHsl-73" value="Yes" style="text;html=1;align=center;verticalAlign=middle;resizable=0;points=[];autosize=1;" parent="WIyWlLk6GJQsqaUBKTNV-1" vertex="1">
          <mxGeometry x="135" y="1760" width="30" height="20" as="geometry" />
        </mxCell>
        <mxCell id="eVNANjYWgDma2gAOLHsl-74" value="100003" style="rounded=1;whiteSpace=wrap;html=1;fillColor=#e51400;strokeColor=#B20000;fontColor=#ffffff;" parent="WIyWlLk6GJQsqaUBKTNV-1" vertex="1">
          <mxGeometry x="225" y="1810" width="120" height="40" as="geometry" />
        </mxCell>
        <mxCell id="eVNANjYWgDma2gAOLHsl-76" value="No" style="text;html=1;align=center;verticalAlign=middle;resizable=0;points=[];autosize=1;" parent="WIyWlLk6GJQsqaUBKTNV-1" vertex="1">
          <mxGeometry x="185" y="1830" width="30" height="20" as="geometry" />
        </mxCell>
        <mxCell id="eVNANjYWgDma2gAOLHsl-83" style="edgeStyle=orthogonalEdgeStyle;rounded=0;orthogonalLoop=1;jettySize=auto;html=1;exitX=1;exitY=0.5;exitDx=0;exitDy=0;entryX=0;entryY=0.5;entryDx=0;entryDy=0;" parent="WIyWlLk6GJQsqaUBKTNV-1" source="eVNANjYWgDma2gAOLHsl-77" target="eVNANjYWgDma2gAOLHsl-81" edge="1">
          <mxGeometry relative="1" as="geometry" />
        </mxCell>
        <mxCell id="eVNANjYWgDma2gAOLHsl-85" value="" style="edgeStyle=orthogonalEdgeStyle;rounded=0;orthogonalLoop=1;jettySize=auto;html=1;" parent="WIyWlLk6GJQsqaUBKTNV-1" source="eVNANjYWgDma2gAOLHsl-77" target="eVNANjYWgDma2gAOLHsl-84" edge="1">
          <mxGeometry relative="1" as="geometry" />
        </mxCell>
        <mxCell id="eVNANjYWgDma2gAOLHsl-77" value="子业务ID是否正确" style="rhombus;whiteSpace=wrap;html=1;gradientColor=#97d077;fillColor=#d5e8d4;strokeColor=#82b366;" parent="WIyWlLk6GJQsqaUBKTNV-1" vertex="1">
          <mxGeometry x="80" y="1920" width="120" height="80" as="geometry" />
        </mxCell>
        <mxCell id="eVNANjYWgDma2gAOLHsl-80" value="Yes" style="text;html=1;align=center;verticalAlign=middle;resizable=0;points=[];autosize=1;" parent="WIyWlLk6GJQsqaUBKTNV-1" vertex="1">
          <mxGeometry x="135" y="1880" width="30" height="20" as="geometry" />
        </mxCell>
        <mxCell id="eVNANjYWgDma2gAOLHsl-81" value="100004" style="rounded=1;whiteSpace=wrap;html=1;fillColor=#e51400;strokeColor=#B20000;fontColor=#ffffff;" parent="WIyWlLk6GJQsqaUBKTNV-1" vertex="1">
          <mxGeometry x="230" y="1945" width="120" height="30" as="geometry" />
        </mxCell>
        <mxCell id="eVNANjYWgDma2gAOLHsl-88" style="edgeStyle=orthogonalEdgeStyle;rounded=0;orthogonalLoop=1;jettySize=auto;html=1;exitX=1;exitY=0.5;exitDx=0;exitDy=0;entryX=0;entryY=0.5;entryDx=0;entryDy=0;" parent="WIyWlLk6GJQsqaUBKTNV-1" source="eVNANjYWgDma2gAOLHsl-84" target="eVNANjYWgDma2gAOLHsl-87" edge="1">
          <mxGeometry relative="1" as="geometry" />
        </mxCell>
        <mxCell id="eVNANjYWgDma2gAOLHsl-92" value="" style="edgeStyle=orthogonalEdgeStyle;rounded=0;orthogonalLoop=1;jettySize=auto;html=1;" parent="WIyWlLk6GJQsqaUBKTNV-1" source="eVNANjYWgDma2gAOLHsl-84" target="eVNANjYWgDma2gAOLHsl-91" edge="1">
          <mxGeometry relative="1" as="geometry" />
        </mxCell>
        <mxCell id="eVNANjYWgDma2gAOLHsl-84" value="验证号码是否符合手机号" style="rhombus;whiteSpace=wrap;html=1;gradientColor=#97d077;fillColor=#d5e8d4;strokeColor=#82b366;" parent="WIyWlLk6GJQsqaUBKTNV-1" vertex="1">
          <mxGeometry x="80" y="2050" width="120" height="80" as="geometry" />
        </mxCell>
        <mxCell id="eVNANjYWgDma2gAOLHsl-86" value="Yes" style="text;html=1;align=center;verticalAlign=middle;resizable=0;points=[];autosize=1;" parent="WIyWlLk6GJQsqaUBKTNV-1" vertex="1">
          <mxGeometry x="135" y="2020" width="30" height="20" as="geometry" />
        </mxCell>
        <mxCell id="eVNANjYWgDma2gAOLHsl-87" value="200007" style="rounded=1;whiteSpace=wrap;html=1;fillColor=#e51400;strokeColor=#B20000;fontColor=#ffffff;" parent="WIyWlLk6GJQsqaUBKTNV-1" vertex="1">
          <mxGeometry x="235" y="2072.5" width="120" height="35" as="geometry" />
        </mxCell>
        <mxCell id="eVNANjYWgDma2gAOLHsl-98" style="edgeStyle=orthogonalEdgeStyle;rounded=0;orthogonalLoop=1;jettySize=auto;html=1;exitX=1;exitY=0.5;exitDx=0;exitDy=0;entryX=0;entryY=0.5;entryDx=0;entryDy=0;" parent="WIyWlLk6GJQsqaUBKTNV-1" source="eVNANjYWgDma2gAOLHsl-91" target="eVNANjYWgDma2gAOLHsl-97" edge="1">
          <mxGeometry relative="1" as="geometry" />
        </mxCell>
        <mxCell id="eVNANjYWgDma2gAOLHsl-99" style="edgeStyle=orthogonalEdgeStyle;rounded=0;orthogonalLoop=1;jettySize=auto;html=1;exitX=0.5;exitY=1;exitDx=0;exitDy=0;entryX=0.5;entryY=1;entryDx=0;entryDy=0;" parent="WIyWlLk6GJQsqaUBKTNV-1" source="eVNANjYWgDma2gAOLHsl-91" target="eVNANjYWgDma2gAOLHsl-101" edge="1">
          <mxGeometry relative="1" as="geometry">
            <mxPoint x="430" y="1210" as="targetPoint" />
            <Array as="points">
              <mxPoint x="140" y="2300" />
              <mxPoint x="430" y="2300" />
            </Array>
          </mxGeometry>
        </mxCell>
        <mxCell id="eVNANjYWgDma2gAOLHsl-91" value="检查是否有传入参数" style="rhombus;whiteSpace=wrap;html=1;gradientColor=#97d077;fillColor=#d5e8d4;strokeColor=#82b366;" parent="WIyWlLk6GJQsqaUBKTNV-1" vertex="1">
          <mxGeometry x="80" y="2180" width="120" height="80" as="geometry" />
        </mxCell>
        <mxCell id="eVNANjYWgDma2gAOLHsl-93" value="Yes" style="text;html=1;align=center;verticalAlign=middle;resizable=0;points=[];autosize=1;" parent="WIyWlLk6GJQsqaUBKTNV-1" vertex="1">
          <mxGeometry x="135" y="2150" width="30" height="20" as="geometry" />
        </mxCell>
        <mxCell id="eVNANjYWgDma2gAOLHsl-94" value="No" style="text;html=1;align=center;verticalAlign=middle;resizable=0;points=[];autosize=1;" parent="WIyWlLk6GJQsqaUBKTNV-1" vertex="1">
          <mxGeometry x="205" y="2090" width="30" height="20" as="geometry" />
        </mxCell>
        <mxCell id="eVNANjYWgDma2gAOLHsl-97" value="900006" style="rounded=1;whiteSpace=wrap;html=1;fillColor=#e51400;strokeColor=#B20000;fontColor=#ffffff;" parent="WIyWlLk6GJQsqaUBKTNV-1" vertex="1">
          <mxGeometry x="235" y="2200" width="120" height="40" as="geometry" />
        </mxCell>
        <mxCell id="eVNANjYWgDma2gAOLHsl-100" value="Yes" style="text;html=1;align=center;verticalAlign=middle;resizable=0;points=[];autosize=1;" parent="WIyWlLk6GJQsqaUBKTNV-1" vertex="1">
          <mxGeometry x="155" y="2270" width="30" height="20" as="geometry" />
        </mxCell>
        <mxCell id="eVNANjYWgDma2gAOLHsl-102" style="edgeStyle=orthogonalEdgeStyle;rounded=0;orthogonalLoop=1;jettySize=auto;html=1;exitX=1;exitY=0;exitDx=0;exitDy=0;" parent="WIyWlLk6GJQsqaUBKTNV-1" source="eVNANjYWgDma2gAOLHsl-101" edge="1">
          <mxGeometry relative="1" as="geometry">
            <mxPoint x="570" y="1000" as="targetPoint" />
            <Array as="points">
              <mxPoint x="460" y="1000" />
              <mxPoint x="570" y="1000" />
            </Array>
          </mxGeometry>
        </mxCell>
        <mxCell id="eVNANjYWgDma2gAOLHsl-101" value="判断业务类型是否为营销" style="rhombus;whiteSpace=wrap;html=1;gradientColor=#97d077;fillColor=#d5e8d4;strokeColor=#82b366;" parent="WIyWlLk6GJQsqaUBKTNV-1" vertex="1">
          <mxGeometry x="370" y="1120" width="120" height="80" as="geometry" />
        </mxCell>
        <mxCell id="eVNANjYWgDma2gAOLHsl-104" value="Yes" style="text;html=1;align=center;verticalAlign=middle;resizable=0;points=[];autosize=1;" parent="WIyWlLk6GJQsqaUBKTNV-1" vertex="1">
          <mxGeometry x="460" y="1095" width="30" height="20" as="geometry" />
        </mxCell>
        <mxCell id="eVNANjYWgDma2gAOLHsl-105" value="No" style="text;html=1;align=center;verticalAlign=middle;resizable=0;points=[];autosize=1;" parent="WIyWlLk6GJQsqaUBKTNV-1" vertex="1">
          <mxGeometry x="460" y="1200" width="30" height="20" as="geometry" />
        </mxCell>
        <mxCell id="eVNANjYWgDma2gAOLHsl-111" style="edgeStyle=orthogonalEdgeStyle;rounded=0;orthogonalLoop=1;jettySize=auto;html=1;exitX=1;exitY=0;exitDx=0;exitDy=0;" parent="WIyWlLk6GJQsqaUBKTNV-1" source="eVNANjYWgDma2gAOLHsl-106" edge="1">
          <mxGeometry relative="1" as="geometry">
            <mxPoint x="640" y="1170" as="targetPoint" />
            <Array as="points">
              <mxPoint x="593" y="1170" />
            </Array>
          </mxGeometry>
        </mxCell>
        <mxCell id="eVNANjYWgDma2gAOLHsl-112" style="edgeStyle=orthogonalEdgeStyle;rounded=0;orthogonalLoop=1;jettySize=auto;html=1;exitX=1;exitY=1;exitDx=0;exitDy=0;" parent="WIyWlLk6GJQsqaUBKTNV-1" source="eVNANjYWgDma2gAOLHsl-106" edge="1">
          <mxGeometry relative="1" as="geometry">
            <mxPoint x="650" y="1360" as="targetPoint" />
            <Array as="points">
              <mxPoint x="593" y="1360" />
              <mxPoint x="650" y="1360" />
            </Array>
          </mxGeometry>
        </mxCell>
        <mxCell id="eVNANjYWgDma2gAOLHsl-106" value="判断号码归属运营商" style="rhombus;whiteSpace=wrap;html=1;gradientColor=#97d077;fillColor=#d5e8d4;strokeColor=#82b366;" parent="WIyWlLk6GJQsqaUBKTNV-1" vertex="1">
          <mxGeometry x="510" y="1200" width="110" height="80" as="geometry" />
        </mxCell>
        <mxCell id="eVNANjYWgDma2gAOLHsl-110" style="edgeStyle=orthogonalEdgeStyle;rounded=0;orthogonalLoop=1;jettySize=auto;html=1;exitX=1;exitY=1;exitDx=0;exitDy=0;" parent="WIyWlLk6GJQsqaUBKTNV-1" source="eVNANjYWgDma2gAOLHsl-101" target="eVNANjYWgDma2gAOLHsl-106" edge="1">
          <mxGeometry relative="1" as="geometry">
            <mxPoint x="660" y="1320" as="targetPoint" />
            <mxPoint x="460" y="1180" as="sourcePoint" />
            <Array as="points">
              <mxPoint x="460" y="1240" />
            </Array>
          </mxGeometry>
        </mxCell>
        <mxCell id="eVNANjYWgDma2gAOLHsl-116" value="" style="edgeStyle=orthogonalEdgeStyle;rounded=0;orthogonalLoop=1;jettySize=auto;html=1;" parent="WIyWlLk6GJQsqaUBKTNV-1" source="eVNANjYWgDma2gAOLHsl-113" target="eVNANjYWgDma2gAOLHsl-115" edge="1">
          <mxGeometry relative="1" as="geometry" />
        </mxCell>
        <mxCell id="eVNANjYWgDma2gAOLHsl-113" value="联通、电信" style="shape=tape;whiteSpace=wrap;html=1;strokeWidth=2;size=0.19;fillColor=#e3c800;strokeColor=#B09500;fontColor=#ffffff;" parent="WIyWlLk6GJQsqaUBKTNV-1" vertex="1">
          <mxGeometry x="640" y="1135" width="100" height="65" as="geometry" />
        </mxCell>
        <mxCell id="eVNANjYWgDma2gAOLHsl-114" value="移动" style="shape=tape;whiteSpace=wrap;html=1;strokeWidth=2;size=0.19;fillColor=#e3c800;strokeColor=#B09500;fontColor=#ffffff;" parent="WIyWlLk6GJQsqaUBKTNV-1" vertex="1">
          <mxGeometry x="650" y="1320" width="100" height="65" as="geometry" />
        </mxCell>
        <mxCell id="eVNANjYWgDma2gAOLHsl-118" style="edgeStyle=orthogonalEdgeStyle;rounded=0;orthogonalLoop=1;jettySize=auto;html=1;exitX=1;exitY=1;exitDx=0;exitDy=0;" parent="WIyWlLk6GJQsqaUBKTNV-1" source="eVNANjYWgDma2gAOLHsl-115" edge="1">
          <mxGeometry relative="1" as="geometry">
            <mxPoint x="970" y="1250" as="targetPoint" />
            <Array as="points">
              <mxPoint x="865" y="1250" />
              <mxPoint x="960" y="1250" />
            </Array>
          </mxGeometry>
        </mxCell>
        <mxCell id="I1CmQbrmW6mpIbCYCKDZ-1" style="edgeStyle=orthogonalEdgeStyle;rounded=0;orthogonalLoop=1;jettySize=auto;html=1;exitX=0.5;exitY=0;exitDx=0;exitDy=0;entryX=0;entryY=0.5;entryDx=0;entryDy=0;" edge="1" parent="WIyWlLk6GJQsqaUBKTNV-1" source="eVNANjYWgDma2gAOLHsl-115" target="I1CmQbrmW6mpIbCYCKDZ-0">
          <mxGeometry relative="1" as="geometry" />
        </mxCell>
        <mxCell id="eVNANjYWgDma2gAOLHsl-115" value="是否有异网模板" style="rhombus;whiteSpace=wrap;html=1;strokeWidth=2;gradientColor=#97d077;fillColor=#d5e8d4;strokeColor=#82b366;" parent="WIyWlLk6GJQsqaUBKTNV-1" vertex="1">
          <mxGeometry x="790" y="1127.5" width="100" height="80" as="geometry" />
        </mxCell>
        <mxCell id="eVNANjYWgDma2gAOLHsl-119" value="Yes" style="text;html=1;align=center;verticalAlign=middle;resizable=0;points=[];autosize=1;" parent="WIyWlLk6GJQsqaUBKTNV-1" vertex="1">
          <mxGeometry x="840" y="1075" width="30" height="20" as="geometry" />
        </mxCell>
        <mxCell id="eVNANjYWgDma2gAOLHsl-120" value="No" style="text;html=1;align=center;verticalAlign=middle;resizable=0;points=[];autosize=1;" parent="WIyWlLk6GJQsqaUBKTNV-1" vertex="1">
          <mxGeometry x="855" y="1210" width="30" height="20" as="geometry" />
        </mxCell>
        <mxCell id="eVNANjYWgDma2gAOLHsl-123" style="edgeStyle=orthogonalEdgeStyle;rounded=0;orthogonalLoop=1;jettySize=auto;html=1;exitX=1;exitY=0;exitDx=0;exitDy=0;fillColor=#e51400;strokeColor=#B20000;" parent="WIyWlLk6GJQsqaUBKTNV-1" source="eVNANjYWgDma2gAOLHsl-121" edge="1">
          <mxGeometry relative="1" as="geometry">
            <mxPoint x="1150" y="1200" as="targetPoint" />
            <Array as="points">
              <mxPoint x="1068" y="1200" />
            </Array>
          </mxGeometry>
        </mxCell>
        <mxCell id="eVNANjYWgDma2gAOLHsl-126" style="edgeStyle=orthogonalEdgeStyle;rounded=0;orthogonalLoop=1;jettySize=auto;html=1;exitX=1;exitY=1;exitDx=0;exitDy=0;fillColor=#0050ef;strokeColor=#001DBC;" parent="WIyWlLk6GJQsqaUBKTNV-1" source="eVNANjYWgDma2gAOLHsl-121" edge="1">
          <mxGeometry relative="1" as="geometry">
            <mxPoint x="1150" y="1320" as="targetPoint" />
            <Array as="points">
              <mxPoint x="1068" y="1320" />
              <mxPoint x="1150" y="1320" />
            </Array>
          </mxGeometry>
        </mxCell>
        <mxCell id="eVNANjYWgDma2gAOLHsl-121" value="接入端口为30或31" style="rhombus;whiteSpace=wrap;html=1;gradientColor=#97d077;fillColor=#d5e8d4;strokeColor=#82b366;" parent="WIyWlLk6GJQsqaUBKTNV-1" vertex="1">
          <mxGeometry x="970" y="1210" width="130" height="80" as="geometry" />
        </mxCell>
        <mxCell id="eVNANjYWgDma2gAOLHsl-125" value="10658830" style="text;html=1;align=center;verticalAlign=middle;resizable=0;points=[];autosize=1;" parent="WIyWlLk6GJQsqaUBKTNV-1" vertex="1">
          <mxGeometry x="1045" y="1180" width="70" height="20" as="geometry" />
        </mxCell>
        <mxCell id="eVNANjYWgDma2gAOLHsl-127" value="10658831" style="text;html=1;align=center;verticalAlign=middle;resizable=0;points=[];autosize=1;" parent="WIyWlLk6GJQsqaUBKTNV-1" vertex="1">
          <mxGeometry x="1045" y="1320" width="70" height="20" as="geometry" />
        </mxCell>
        <mxCell id="eVNANjYWgDma2gAOLHsl-128" value="队列：pm-ws-10658830-Code" style="ellipse;whiteSpace=wrap;html=1;fillColor=#cce5ff;strokeColor=#36393d;" parent="WIyWlLk6GJQsqaUBKTNV-1" vertex="1">
          <mxGeometry x="1150" y="1170" width="170" height="60" as="geometry" />
        </mxCell>
        <mxCell id="eVNANjYWgDma2gAOLHsl-129" value="队列：pm-ws-10658831-Other" style="ellipse;whiteSpace=wrap;html=1;fillColor=#cce5ff;strokeColor=#36393d;" parent="WIyWlLk6GJQsqaUBKTNV-1" vertex="1">
          <mxGeometry x="1150" y="1285" width="170" height="70" as="geometry" />
        </mxCell>
        <mxCell id="eVNANjYWgDma2gAOLHsl-132" value="" style="edgeStyle=orthogonalEdgeStyle;rounded=0;orthogonalLoop=1;jettySize=auto;html=1;" parent="WIyWlLk6GJQsqaUBKTNV-1" source="eVNANjYWgDma2gAOLHsl-130" target="eVNANjYWgDma2gAOLHsl-131" edge="1">
          <mxGeometry relative="1" as="geometry" />
        </mxCell>
        <mxCell id="eVNANjYWgDma2gAOLHsl-130" value="" style="shape=curlyBracket;whiteSpace=wrap;html=1;rounded=1;direction=west;" parent="WIyWlLk6GJQsqaUBKTNV-1" vertex="1">
          <mxGeometry x="1340" y="1180" width="20" height="160" as="geometry" />
        </mxCell>
        <mxCell id="eVNANjYWgDma2gAOLHsl-133" style="edgeStyle=orthogonalEdgeStyle;rounded=0;orthogonalLoop=1;jettySize=auto;html=1;exitX=1;exitY=0;exitDx=0;exitDy=0;fillColor=#e51400;strokeColor=#B20000;" parent="WIyWlLk6GJQsqaUBKTNV-1" source="eVNANjYWgDma2gAOLHsl-131" edge="1">
          <mxGeometry relative="1" as="geometry">
            <mxPoint x="1580" y="1200" as="targetPoint" />
            <Array as="points">
              <mxPoint x="1510" y="1200" />
            </Array>
          </mxGeometry>
        </mxCell>
        <mxCell id="eVNANjYWgDma2gAOLHsl-134" style="edgeStyle=orthogonalEdgeStyle;rounded=0;orthogonalLoop=1;jettySize=auto;html=1;exitX=1;exitY=1;exitDx=0;exitDy=0;fillColor=#0050ef;strokeColor=#001DBC;" parent="WIyWlLk6GJQsqaUBKTNV-1" source="eVNANjYWgDma2gAOLHsl-131" edge="1">
          <mxGeometry relative="1" as="geometry">
            <mxPoint x="1580" y="1320" as="targetPoint" />
            <Array as="points">
              <mxPoint x="1510" y="1320" />
            </Array>
          </mxGeometry>
        </mxCell>
        <mxCell id="eVNANjYWgDma2gAOLHsl-131" value="mtdisponse处理" style="whiteSpace=wrap;html=1;rounded=1;fillColor=#0050ef;strokeColor=#001DBC;fontColor=#ffffff;" parent="WIyWlLk6GJQsqaUBKTNV-1" vertex="1">
          <mxGeometry x="1390" y="1240" width="120" height="40" as="geometry" />
        </mxCell>
        <mxCell id="eVNANjYWgDma2gAOLHsl-139" value="" style="edgeStyle=orthogonalEdgeStyle;rounded=0;orthogonalLoop=1;jettySize=auto;html=1;fillColor=#e51400;strokeColor=#B20000;" parent="WIyWlLk6GJQsqaUBKTNV-1" source="eVNANjYWgDma2gAOLHsl-135" target="eVNANjYWgDma2gAOLHsl-138" edge="1">
          <mxGeometry relative="1" as="geometry" />
        </mxCell>
        <mxCell id="eVNANjYWgDma2gAOLHsl-135" value="队列：pm-send-10658830-Code" style="ellipse;whiteSpace=wrap;html=1;fillColor=#cce5ff;strokeColor=#36393d;" parent="WIyWlLk6GJQsqaUBKTNV-1" vertex="1">
          <mxGeometry x="1580" y="1170" width="190" height="70" as="geometry" />
        </mxCell>
        <mxCell id="eVNANjYWgDma2gAOLHsl-140" style="edgeStyle=orthogonalEdgeStyle;rounded=0;orthogonalLoop=1;jettySize=auto;html=1;exitX=1;exitY=0.5;exitDx=0;exitDy=0;fillColor=#0050ef;strokeColor=#001DBC;" parent="WIyWlLk6GJQsqaUBKTNV-1" source="eVNANjYWgDma2gAOLHsl-136" edge="1">
          <mxGeometry relative="1" as="geometry">
            <mxPoint x="1810" y="1315" as="targetPoint" />
          </mxGeometry>
        </mxCell>
        <mxCell id="eVNANjYWgDma2gAOLHsl-136" value="队列：pm-send-10658831-Other" style="ellipse;whiteSpace=wrap;html=1;fillColor=#cce5ff;strokeColor=#36393d;" parent="WIyWlLk6GJQsqaUBKTNV-1" vertex="1">
          <mxGeometry x="1580" y="1280" width="180" height="70" as="geometry" />
        </mxCell>
        <mxCell id="eVNANjYWgDma2gAOLHsl-142" value="" style="edgeStyle=orthogonalEdgeStyle;rounded=0;orthogonalLoop=1;jettySize=auto;html=1;fillColor=#e51400;strokeColor=#B20000;" parent="WIyWlLk6GJQsqaUBKTNV-1" source="eVNANjYWgDma2gAOLHsl-138" target="eVNANjYWgDma2gAOLHsl-141" edge="1">
          <mxGeometry relative="1" as="geometry" />
        </mxCell>
        <mxCell id="eVNANjYWgDma2gAOLHsl-138" value="HwcmCodeSend" style="whiteSpace=wrap;html=1;fillColor=#0050ef;strokeColor=#001DBC;fontColor=#ffffff;" parent="WIyWlLk6GJQsqaUBKTNV-1" vertex="1">
          <mxGeometry x="1820" y="1180" width="120" height="50" as="geometry" />
        </mxCell>
        <mxCell id="eVNANjYWgDma2gAOLHsl-141" value="000000" style="triangle;whiteSpace=wrap;html=1;direction=north;fillColor=#a0522d;strokeColor=#6D1F00;fontColor=#ffffff;" parent="WIyWlLk6GJQsqaUBKTNV-1" vertex="1">
          <mxGeometry x="1990" y="1175" width="80" height="60" as="geometry" />
        </mxCell>
        <mxCell id="eVNANjYWgDma2gAOLHsl-145" value="" style="edgeStyle=orthogonalEdgeStyle;rounded=0;orthogonalLoop=1;jettySize=auto;html=1;fillColor=#0050ef;strokeColor=#001DBC;" parent="WIyWlLk6GJQsqaUBKTNV-1" source="eVNANjYWgDma2gAOLHsl-143" target="eVNANjYWgDma2gAOLHsl-144" edge="1">
          <mxGeometry relative="1" as="geometry" />
        </mxCell>
        <mxCell id="eVNANjYWgDma2gAOLHsl-143" value="&lt;span lang=&quot;EN-US&quot; style=&quot;font-size: 10.5pt ; font-family: &amp;#34;calibri&amp;#34; , sans-serif&quot;&gt;cmppOtherGwSend&lt;/span&gt;" style="rounded=0;whiteSpace=wrap;html=1;fillColor=#0050ef;strokeColor=#001DBC;fontColor=#ffffff;" parent="WIyWlLk6GJQsqaUBKTNV-1" vertex="1">
          <mxGeometry x="1810" y="1290" width="120" height="45" as="geometry" />
        </mxCell>
        <mxCell id="eVNANjYWgDma2gAOLHsl-144" value="000000" style="triangle;whiteSpace=wrap;html=1;rounded=0;direction=north;fillColor=#a0522d;strokeColor=#6D1F00;fontColor=#ffffff;" parent="WIyWlLk6GJQsqaUBKTNV-1" vertex="1">
          <mxGeometry x="2000" y="1282.5" width="80" height="60" as="geometry" />
        </mxCell>
        <mxCell id="eVNANjYWgDma2gAOLHsl-147" value="&lt;b&gt;测试练习：&lt;br&gt;业务类型：验证码&lt;br&gt;测试端口：10638830-10658831&lt;br&gt;测试号码：13128577104&lt;/b&gt;" style="text;html=1;align=center;verticalAlign=middle;resizable=0;points=[];autosize=1;" parent="WIyWlLk6GJQsqaUBKTNV-1" vertex="1">
          <mxGeometry x="410" width="190" height="60" as="geometry" />
        </mxCell>
        <mxCell id="eVNANjYWgDma2gAOLHsl-150" value="" style="edgeStyle=orthogonalEdgeStyle;rounded=0;orthogonalLoop=1;jettySize=auto;html=1;fillColor=#008a00;strokeColor=#005700;" parent="WIyWlLk6GJQsqaUBKTNV-1" source="eVNANjYWgDma2gAOLHsl-148" target="eVNANjYWgDma2gAOLHsl-149" edge="1">
          <mxGeometry relative="1" as="geometry" />
        </mxCell>
        <mxCell id="eVNANjYWgDma2gAOLHsl-148" value="队列：umap-pm-ospsend" style="ellipse;whiteSpace=wrap;html=1;fillColor=#cce5ff;strokeColor=#36393d;" parent="WIyWlLk6GJQsqaUBKTNV-1" vertex="1">
          <mxGeometry x="1540" y="1010" width="220" height="70" as="geometry" />
        </mxCell>
        <mxCell id="eVNANjYWgDma2gAOLHsl-152" value="" style="edgeStyle=orthogonalEdgeStyle;rounded=0;orthogonalLoop=1;jettySize=auto;html=1;fillColor=#008a00;strokeColor=#005700;" parent="WIyWlLk6GJQsqaUBKTNV-1" source="eVNANjYWgDma2gAOLHsl-149" target="eVNANjYWgDma2gAOLHsl-151" edge="1">
          <mxGeometry relative="1" as="geometry" />
        </mxCell>
        <mxCell id="eVNANjYWgDma2gAOLHsl-149" value="OspSend" style="whiteSpace=wrap;html=1;fillColor=#0050ef;strokeColor=#001DBC;fontColor=#ffffff;" parent="WIyWlLk6GJQsqaUBKTNV-1" vertex="1">
          <mxGeometry x="1810" y="1025" width="120" height="50" as="geometry" />
        </mxCell>
        <mxCell id="eVNANjYWgDma2gAOLHsl-151" value="000000" style="triangle;whiteSpace=wrap;html=1;fontColor=#ffffff;strokeColor=#6D1F00;fillColor=#a0522d;direction=north;" parent="WIyWlLk6GJQsqaUBKTNV-1" vertex="1">
          <mxGeometry x="1990" y="1020" width="80" height="60" as="geometry" />
        </mxCell>
        <mxCell id="I1CmQbrmW6mpIbCYCKDZ-5" style="edgeStyle=orthogonalEdgeStyle;rounded=0;orthogonalLoop=1;jettySize=auto;html=1;exitX=1;exitY=0.5;exitDx=0;exitDy=0;" edge="1" parent="WIyWlLk6GJQsqaUBKTNV-1" source="I1CmQbrmW6mpIbCYCKDZ-0" target="I1CmQbrmW6mpIbCYCKDZ-4">
          <mxGeometry relative="1" as="geometry" />
        </mxCell>
        <mxCell id="I1CmQbrmW6mpIbCYCKDZ-0" value="umap-pm-Ws2Send-Osp" style="ellipse;whiteSpace=wrap;html=1;fillColor=#b1ddf0;strokeColor=#10739e;" vertex="1" parent="WIyWlLk6GJQsqaUBKTNV-1">
          <mxGeometry x="990" y="1000" width="160" height="80" as="geometry" />
        </mxCell>
        <mxCell id="I1CmQbrmW6mpIbCYCKDZ-6" style="edgeStyle=orthogonalEdgeStyle;rounded=0;orthogonalLoop=1;jettySize=auto;html=1;exitX=1;exitY=0.5;exitDx=0;exitDy=0;entryX=0;entryY=0.5;entryDx=0;entryDy=0;" edge="1" parent="WIyWlLk6GJQsqaUBKTNV-1" source="I1CmQbrmW6mpIbCYCKDZ-4" target="eVNANjYWgDma2gAOLHsl-148">
          <mxGeometry relative="1" as="geometry" />
        </mxCell>
        <mxCell id="I1CmQbrmW6mpIbCYCKDZ-4" value="mtdisponse处理" style="rounded=1;whiteSpace=wrap;html=1;fillColor=#0050ef;strokeColor=#001DBC;fontColor=#ffffff;" vertex="1" parent="WIyWlLk6GJQsqaUBKTNV-1">
          <mxGeometry x="1310" y="1010" width="120" height="60" as="geometry" />
        </mxCell>
      </root>
    </mxGraphModel>
  </diagram>
</mxfile>
